<?xml version="1.0" encoding="UTF-8"?>
<svg width="492px" height="438px" viewBox="0 0 492 438" xmlns="http://www.w3.org/2000/svg" xmlns:xlink="http://www.w3.org/1999/xlink" version="1.1">
 <!-- Generated by Pixelmator Pro 1.3.4 -->
 <path id="path" d="M491.3 219.2 C491.3 186.7 450.6 155.9 388.2 136.8 402.6 73.2 396.2 22.6 368 6.4 361.5 2.6 353.9 0.8 345.6 0.8 L345.6 23.1 C350.2 23.1 353.9 24 357 25.7 370.6 33.5 376.5 63.2 371.9 101.4 370.8 110.8 369 120.7 366.8 130.8 347.2 126 325.8 122.3 303.3 119.9 289.8 101.4 275.8 84.6 261.7 69.9 294.3 39.6 324.9 23 345.7 23 L345.7 0.7 C345.7 0.7 345.7 0.7 345.7 0.7 318.2 0.7 282.2 20.3 245.8 54.3 209.4 20.5 173.4 1.1 145.9 1.1 L145.9 23.4 C166.6 23.4 197.3 39.9 229.9 70 215.9 84.7 201.9 101.4 188.6 119.9 166 122.3 144.6 126 125 130.9 122.7 120.9 121 111.2 119.8 101.9 115.1 63.7 120.9 34 134.4 26.1 137.4 24.3 141.3 23.5 145.9 23.5 L145.9 1.2 C145.9 1.2 145.9 1.2 145.9 1.2 137.5 1.2 129.9 3 123.3 6.8 95.2 23 88.9 73.5 103.4 136.9 41.2 156.1 0.7 186.8 0.7 219.2 0.7 251.7 41.4 282.5 103.8 301.6 89.4 365.2 95.8 415.8 124 432 130.5 435.8 138.1 437.6 146.5 437.6 174 437.6 210 418 246.4 384 282.8 417.8 318.8 437.2 346.3 437.2 354.7 437.2 362.3 435.4 368.9 431.6 397 415.4 403.3 364.9 388.8 301.5 450.8 282.4 491.3 251.6 491.3 219.2 Z M361.1 152.5 C357.4 165.4 352.8 178.7 347.6 192 343.5 184 339.2 176 334.5 168 329.9 160 325 152.2 320.1 144.6 334.3 146.7 348 149.3 361.1 152.5 Z M315.3 259 C307.5 272.5 299.5 285.3 291.2 297.2 276.3 298.5 261.2 299.2 246 299.2 230.9 299.2 215.8 298.5 201 297.3 192.7 285.4 184.6 272.7 176.8 259.3 169.2 246.2 162.3 232.9 156 219.5 162.2 206.1 169.2 192.7 176.7 179.6 184.5 166.1 192.5 153.3 200.8 141.4 215.7 140.1 230.8 139.4 246 139.4 261.1 139.4 276.2 140.1 291 141.3 299.3 153.2 307.4 165.9 315.2 179.3 322.8 192.4 329.7 205.7 336 219.1 329.7 232.5 322.8 245.9 315.3 259 Z M347.6 246 C353 259.4 357.6 272.8 361.4 285.8 348.3 289 334.5 291.7 320.2 293.8 325.1 286.1 330 278.2 334.6 270.1 339.2 262.1 343.5 254 347.6 246 Z M246.2 352.7 C236.9 343.1 227.6 332.4 218.4 320.7 227.4 321.1 236.6 321.4 245.9 321.4 255.3 321.4 264.6 321.2 273.7 320.7 264.7 332.4 255.4 343.1 246.2 352.7 Z M171.8 293.8 C157.6 291.7 143.9 289.1 130.8 285.9 134.5 273 139.1 259.7 144.3 246.4 148.4 254.4 152.7 262.4 157.4 270.4 162.1 278.4 166.9 286.2 171.8 293.8 Z M245.7 85.7 C255 95.3 264.3 106 273.5 117.7 264.5 117.3 255.3 117 246 117 236.6 117 227.3 117.2 218.2 117.7 227.2 106 236.5 95.3 245.7 85.7 Z M171.7 144.6 C166.8 152.3 161.9 160.2 157.3 168.3 152.7 176.3 148.4 184.3 144.3 192.3 138.9 178.9 134.3 165.5 130.5 152.5 143.6 149.4 157.4 146.7 171.7 144.6 Z M81.2 269.8 C45.8 254.7 22.9 234.9 22.9 219.2 22.9 203.5 45.8 183.6 81.2 168.6 89.8 164.9 99.2 161.6 108.9 158.5 114.6 178.1 122.1 198.5 131.4 219.4 122.2 240.2 114.8 260.5 109.2 280 99.3 276.9 89.9 273.5 81.2 269.8 Z M135 412.7 C121.4 404.9 115.5 375.2 120.1 337 121.2 327.6 123 317.7 125.2 307.6 144.8 312.4 166.2 316.1 188.7 318.5 202.2 337 216.2 353.8 230.3 368.5 197.7 398.8 167.1 415.4 146.3 415.4 141.8 415.3 138 414.4 135 412.7 Z M372.2 336.5 C376.9 374.7 371.1 404.4 357.6 412.3 354.6 414.1 350.7 414.9 346.1 414.9 325.4 414.9 294.7 398.4 262.1 368.3 276.1 353.6 290.1 336.9 303.4 318.4 326 316 347.4 312.3 367 307.4 369.3 317.5 371.1 327.2 372.2 336.5 Z M410.7 269.8 C402.1 273.5 392.7 276.8 383 279.9 377.3 260.3 369.8 239.9 360.5 219 369.7 198.2 377.1 177.9 382.7 158.4 392.6 161.5 402 164.9 410.8 168.6 446.2 183.7 469.1 203.5 469.1 219.2 469 234.9 446.1 254.8 410.7 269.8 Z" fill="#61dafb" fill-opacity="1" stroke="none"/>
 <path id="path-1" d="M145.8 1.1 L145.8 1.1 145.8 1.1 Z" fill="#61dafb" fill-opacity="1" stroke="none"/>
 <path id="path-2" d="M291.6 219.2 C291.6 244.439 271.139 264.9 245.9 264.9 220.661 264.9 200.2 244.439 200.2 219.2 200.2 193.961 220.661 173.5 245.9 173.5 271.139 173.5 291.6 193.961 291.6 219.2 Z" fill="#61dafb" fill-opacity="1" stroke="none"/>
 <path id="path-3" d="M345.5 0.8 L345.5 0.8 345.5 0.8 Z" fill="#61dafb" fill-opacity="1" stroke="none"/>
</svg>
