<?xml version="1.0" standalone="no"?>
<!DOCTYPE svg PUBLIC "-//W3C//DTD SVG 20010904//EN"
 "http://www.w3.org/TR/2001/REC-SVG-20010904/DTD/svg10.dtd">
<svg version="1.0" xmlns="http://www.w3.org/2000/svg"
 width="700.000000pt" height="700.000000pt" viewBox="0 0 700.000000 700.000000"
 preserveAspectRatio="xMidYMid meet">
<metadata>
Created by potrace 1.11, written by Peter Selinger 2001-2013
</metadata>
<g transform="translate(0.000000,700.000000) scale(0.100000,-0.100000)"
fill="#000000" stroke="none">
<path d="M4171 5858 c-15 -40 -183 -452 -196 -483 -7 -16 -66 -160 -130 -320
-65 -159 -123 -303 -130 -320 -7 -16 -36 -86 -64 -155 -27 -69 -112 -276 -187
-460 -75 -184 -154 -380 -176 -435 -22 -55 -46 -113 -53 -130 -8 -16 -46 -111
-85 -210 -40 -99 -78 -193 -85 -210 -7 -16 -63 -154 -124 -305 -62 -151 -116
-284 -121 -295 -5 -11 -34 -81 -64 -155 -137 -341 -359 -888 -372 -918 -9 -19
-14 -35 -12 -37 1 -1 157 -65 346 -140 198 -80 347 -134 352 -129 5 5 29 61
55 124 25 63 50 124 55 135 5 11 39 94 76 185 36 91 72 179 79 195 7 17 37 89
65 160 29 72 61 149 71 172 10 23 19 46 19 51 0 5 6 22 14 38 8 16 40 92 70
169 31 77 61 149 66 160 5 11 28 67 50 125 23 58 48 119 55 135 7 17 34 82 59
145 26 63 53 129 61 147 8 17 15 37 15 45 0 8 4 18 8 24 5 5 21 41 37 79 15
39 34 84 40 100 7 17 36 86 63 155 64 156 147 361 342 840 84 206 166 409 182
450 17 41 36 89 43 105 7 17 26 62 41 100 15 39 31 74 35 80 5 5 9 15 9 23 0
7 11 38 25 68 14 30 25 57 25 60 0 3 6 20 14 37 7 18 23 57 35 87 12 30 26 64
31 75 18 40 70 167 70 171 0 2 -17 11 -37 20 -78 32 -655 264 -659 264 -3 0
-8 -10 -13 -22z"/>
<path d="M1815 4854 c-118 -74 -149 -94 -215 -136 -30 -19 -287 -180 -570
-358 -283 -177 -566 -355 -628 -394 -162 -102 -164 -104 -197 -122 -16 -9 -32
-20 -35 -23 -3 -4 -42 -29 -87 -56 l-83 -50 0 -310 1 -310 57 -34 c31 -19 86
-53 122 -76 77 -50 668 -421 716 -450 34 -20 506 -316 829 -520 138 -87 183
-111 192 -102 7 7 36 55 66 107 30 52 80 140 112 195 32 55 69 120 83 145 14
25 30 53 36 62 7 11 7 21 1 26 -6 5 -174 111 -375 237 -201 125 -387 243 -415
260 -58 38 -351 221 -380 238 -10 7 -40 26 -66 42 -25 17 -100 64 -167 105
l-121 75 62 39 c185 118 790 496 793 496 3 0 10 5 17 10 16 14 158 104 177
113 8 4 85 52 170 106 85 55 190 121 233 147 42 27 77 51 77 54 0 6 -66 124
-119 215 -10 17 -31 53 -47 81 -114 202 -139 244 -144 244 -3 0 -45 -25 -95
-56z"/>
<path d="M4986 4793 c-70 -120 -90 -154 -190 -326 -32 -54 -56 -100 -54 -101
2 -2 48 -31 103 -64 201 -123 247 -151 587 -362 191 -118 367 -227 390 -241
24 -15 106 -65 183 -113 77 -48 172 -106 212 -129 40 -23 71 -46 70 -51 -3 -8
-162 -109 -672 -422 -132 -81 -271 -167 -310 -191 -38 -25 -180 -112 -315
-195 -135 -83 -246 -152 -248 -154 -3 -2 96 -174 225 -391 10 -17 33 -57 52
-90 18 -32 35 -59 36 -61 3 -3 35 16 217 129 149 93 328 203 386 238 23 14
144 89 268 166 125 77 253 156 285 175 32 19 170 104 306 189 136 84 301 186
365 225 l117 71 1 310 0 311 -32 19 c-18 10 -220 134 -448 275 -228 141 -426
263 -439 271 -14 8 -30 18 -35 22 -6 4 -128 80 -271 168 -143 88 -280 172
-305 188 -126 79 -173 108 -204 126 -19 11 -73 44 -119 73 -47 28 -86 52 -88
52 -3 0 -35 -53 -73 -117z"/>
</g>
</svg>
