<?xml version="1.0" encoding="UTF-8"?>
<svg width="72px" height="72px" viewBox="0 0 72 72" xmlns="http://www.w3.org/2000/svg" xmlns:xlink="http://www.w3.org/1999/xlink" version="1.1">
 <!-- Generated by Pixelmator Pro 1.3.4 -->
 <path id="path" d="M36 1 C23.495 1 11.941 7.671 5.689 18.5 -0.563 29.329 -0.563 42.671 5.689 53.5 11.941 64.329 23.495 71 36 71 48.504 71 60.059 64.329 66.311 53.5 72.563 42.671 72.563 29.329 66.311 18.5 60.059 7.671 48.504 1 36 1 Z" fill="#78a2d2" fill-opacity="1" stroke="none"/>
 <path id="path-1" d="M63.237 50.039 C63.163 50.039 63.089 50.022 63.018 49.988 62.77 49.867 62.666 49.568 62.788 49.32 62.986 48.912 63.176 48.501 63.354 48.087 64.048 46.475 64.601 44.788 64.997 43.073 65.06 42.803 65.325 42.635 65.597 42.698 65.867 42.761 66.034 43.029 65.972 43.298 65.563 45.071 64.991 46.816 64.273 48.483 64.088 48.912 63.893 49.337 63.687 49.758 63.601 49.936 63.422 50.039 63.237 50.039 Z M66.383 39.394 C66.367 39.394 66.353 39.393 66.338 39.392 66.063 39.368 65.859 39.124 65.884 38.85 65.942 38.203 65.979 37.554 65.995 36.906 66.097 32.881 65.406 28.944 63.944 25.203 63.843 24.946 63.97 24.656 64.228 24.555 64.485 24.454 64.775 24.582 64.875 24.839 66.386 28.705 67.099 32.773 66.994 36.932 66.977 37.602 66.938 38.272 66.879 38.939 66.856 39.198 66.639 39.394 66.383 39.394 Z M13.735 15.728 C13.612 15.728 13.49 15.684 13.394 15.593 13.192 15.405 13.182 15.089 13.37 14.886 18.419 9.478 25.252 6.062 32.608 5.268 32.885 5.245 33.129 5.437 33.159 5.711 33.189 5.985 32.99 6.232 32.716 6.262 25.598 7.03 18.987 10.335 14.102 15.568 14.002 15.675 13.869 15.728 13.735 15.728 Z M15.278 58.784 C15.155 58.784 15.033 58.739 14.937 58.649 4.384 48.796 1.98 33.189 9.092 20.694 9.228 20.454 9.533 20.369 9.774 20.507 10.014 20.644 10.098 20.949 9.961 21.189 3.08 33.279 5.407 48.383 15.62 57.918 15.822 58.106 15.832 58.423 15.644 58.624 15.545 58.73 15.412 58.784 15.278 58.784 Z M49.348 64.001 C49.162 64.001 48.984 63.897 48.898 63.718 48.778 63.47 48.882 63.171 49.131 63.051 52.455 61.448 55.431 59.255 57.974 56.532 58.999 55.432 59.948 54.252 60.791 53.022 60.947 52.795 61.259 52.737 61.486 52.893 61.713 53.049 61.771 53.36 61.615 53.588 60.744 54.859 59.764 56.078 58.704 57.213 56.076 60.027 53.002 62.294 49.564 63.95 49.495 63.985 49.421 64.001 49.348 64.001 Z" fill="#1f212b" fill-opacity="1" stroke="none"/>
 <path id="path-2" d="M30.5 70 L30.5 45.5 21.5 45.5 21.5 36.5 30.5 36.5 30.5 27.529 C30.305 19.48 36.397 11.649 50.5 15.991 L50.471 24.5 45.57 24.468 C41.8 24.468 40.501 25.714 40.501 28.43 L40.501 36.5 51.277 36.5 49.383 45.5 40.5 45.5 40.5 70" fill="#fefdef" fill-opacity="1" stroke="none"/>
 <path id="path-3" d="M41 70 L40 70 40 45 48.977 45 50.66 37 40 37 40 28.43 C40 25.302 41.666 23.968 45.569 23.968 L49.972 23.997 49.998 16.363 C43.861 14.546 38.805 14.964 35.357 17.574 32.487 19.748 30.899 23.372 30.999 27.517 L30.999 37 21.999 37 21.999 45 30.999 45 30.999 70 29.999 70 29.999 46 20.999 46 20.999 36 29.999 36 29.999 27.529 C29.891 23.07 31.624 19.147 34.753 16.777 37.389 14.781 42.287 12.941 50.646 15.513 L51 15.622 50.968 25.003 45.566 24.967 C41.764 24.967 41 26.292 41 28.429 L41 36 51.892 36 49.788 46 41 46 41 70 Z" fill="#1f212b" fill-opacity="1" stroke="none"/>
 <path id="path-4" d="M36 72 C16.149 72 0 55.851 0 36 0 16.149 16.149 0 36 0 55.851 0 72 16.149 72 36 72 55.851 55.851 72 36 72 Z M36 2 C17.252 2 2 17.252 2 36 2 54.748 17.252 70 36 70 54.748 70 70 54.748 70 36 70 17.252 54.748 2 36 2 Z" fill="#1f212b" fill-opacity="1" stroke="none"/>
</svg>
