<?xml version="1.0" encoding="UTF-8"?>
<svg width="467px" height="350px" viewBox="0 0 467 350" version="1.1" xmlns="http://www.w3.org/2000/svg" xmlns:xlink="http://www.w3.org/1999/xlink">
    <!-- Generator: Sketch 56 (81588) - https://sketch.com -->
    <title>Group 2</title>
    <desc>Created with Sketch.</desc>
    <g id="Page-1" stroke="none" stroke-width="1" fill="none" fill-rule="evenodd">
        <g id="Group-2" stroke="#222222">
            <g id="Group">
                <rect id="Rectangle" stroke-width="12" fill="#FFEA96" x="6" y="6" width="413" height="264" rx="30"></rect>
                <path d="M212.5,5.63435496 L404.800617,130.516638 C410.590418,134.276603 412.235925,142.018218 408.47596,147.808019 C406.170612,151.357921 402.225379,153.5 397.992598,153.5 L27.0074019,153.5 C20.1038425,153.5 14.5074019,147.903559 14.5074019,141 C14.5074019,136.767219 16.649481,132.821986 20.1993832,130.516638 L212.5,5.63435496 Z" id="Triangle" stroke-width="9" fill="#FFEA96" transform="translate(212.500000, 80.000000) scale(1, -1) translate(-212.500000, -80.000000) "></path>
                <rect id="Rectangle" stroke-width="9" transform="translate(107.698689, 203.072661) rotate(54.000000) translate(-107.698689, -203.072661) " x="107.698689" y="100.072661" width="1" height="206" rx="0.5"></rect>
                <rect id="Rectangle" stroke-width="9" fill="#D8D8D8" transform="translate(318.500000, 204.500000) scale(-1, 1) rotate(54.000000) translate(-318.500000, -204.500000) " x="318.5" y="102.5" width="1" height="204" rx="0.5"></rect>
            </g>
            <g id="Group" transform="translate(37.000000, 36.000000)">
                <rect id="Rectangle" stroke-width="12" fill="#FFEA96" x="6" y="6" width="413" height="264" rx="30"></rect>
                <path d="M212.5,5.63435496 L404.800617,130.516638 C410.590418,134.276603 412.235925,142.018218 408.47596,147.808019 C406.170612,151.357921 402.225379,153.5 397.992598,153.5 L27.0074019,153.5 C20.1038425,153.5 14.5074019,147.903559 14.5074019,141 C14.5074019,136.767219 16.649481,132.821986 20.1993832,130.516638 L212.5,5.63435496 Z" id="Triangle" stroke-width="9" fill="#FFEA96" transform="translate(212.500000, 80.000000) scale(1, -1) translate(-212.500000, -80.000000) "></path>
                <rect id="Rectangle" stroke-width="9" transform="translate(107.698689, 203.072661) rotate(54.000000) translate(-107.698689, -203.072661) " x="107.698689" y="100.072661" width="1" height="206" rx="0.5"></rect>
                <rect id="Rectangle" stroke-width="9" fill="#D8D8D8" transform="translate(318.500000, 204.500000) scale(-1, 1) rotate(54.000000) translate(-318.500000, -204.500000) " x="318.5" y="102.5" width="1" height="204" rx="0.5"></rect>
            </g>
            <circle id="Oval" stroke-width="10" fill="#77BB76" cx="376.5" cy="259.5" r="85.5"></circle>
            <rect id="Rectangle" stroke-width="10" fill="#D8D8D8" x="343" y="259.403845" width="61" height="1" rx="0.5"></rect>
            <rect id="Rectangle" stroke-width="10" fill="#D8D8D8" transform="translate(394.000000, 250.140865) rotate(35.000000) translate(-394.000000, -250.140865) " x="378" y="250.140865" width="32" height="1" rx="0.5"></rect>
            <rect id="Rectangle" stroke-width="10" fill="#D8D8D8" transform="translate(393.000000, 269.403845) scale(1, -1) rotate(35.000000) translate(-393.000000, -269.403845) " x="377" y="269.403845" width="32" height="1" rx="0.5"></rect>
        </g>
    </g>
</svg>