<?xml version="1.0" encoding="UTF-8"?>
<svg width="72px" height="72px" viewBox="0 0 72 72" xmlns="http://www.w3.org/2000/svg" xmlns:xlink="http://www.w3.org/1999/xlink" version="1.1">
 <!-- Generated by Pixelmator Pro 1.3.4 -->
 <path id="path" d="M71 36 C71 55.33 55.33 71 36 71 16.67 71 1 55.33 1 36 1 16.67 16.67 1 36 1 55.33 1 71 16.67 71 36 Z" fill="#39c2d8" fill-opacity="1" stroke="none"/>
 <path id="path-1" d="M34.537 46.436 L29.258 51.312 C29.258 51.312 29.03 51.49 28.718 51.498 28.612 51.506 28.497 51.49 28.383 51.436 L29.866 42.489 34.537 46.436 Z" fill="#b3b2c3" fill-opacity="1" stroke="none"/>
 <path id="path-2" d="M45.643 52.128 C45.643 52.128 45.4 53.5 43.726 53.5 42.836 53.5 42.38 53.074 42.38 53.074 L29.874 42.49 23.75 39.35 15.892 37.218 C15.892 37.218 14.5 36.807 14.5 35.628 14.5 34.643 15.938 34.178 15.938 34.178 L48.8 20.872 C48.8 20.872 49.645 20.5 50.375 20.5 51 20.5 51.5 20.875 51.5 21.5 51.5 21.621 51.488 21.752 51.471 21.875 51.434 22.145 45.643 52.128 45.643 52.128 Z" fill="#ffffff" fill-opacity="1" stroke="none"/>
 <path id="path-3" d="M45.34 26.81 C45.19 26.607 44.965 26.501 44.735 26.5 44.57 26.499 44.403 26.552 44.26 26.663 L23.75 39.357 C23.75 39.357 27.663 50.307 27.742 50.5 28.114 51.41 28.383 51.436 28.383 51.436 L29.866 42.489 45.196 27.911 C45.397 27.757 45.501 27.522 45.5 27.286 45.5 27.119 45.447 26.951 45.34 26.81 Z" fill="#d7d6eb" fill-opacity="1" stroke="none"/>
 <path id="path-4" d="M36 72 C16.149 72 0 55.851 0 36 0 16.149 16.149 0 36 0 55.851 0 72 16.149 72 36 72 55.851 55.851 72 36 72 Z M36 2 C17.252 2 2 17.252 2 36 2 54.748 17.252 70 36 70 54.748 70 70 54.748 70 36 70 17.252 54.748 2 36 2 Z" fill="#1f212b" fill-opacity="1" stroke="none"/>
 <path id="path-5" d="M51.5 10.227 C51.413 10.227 51.325 10.205 51.245 10.157 50.607 9.78 49.946 9.422 49.278 9.092 49.031 8.969 48.929 8.67 49.051 8.422 49.174 8.173 49.476 8.075 49.721 8.195 50.41 8.536 51.095 8.906 51.754 9.297 51.991 9.438 52.07 9.744 51.93 9.982 51.837 10.139 51.671 10.227 51.5 10.227 Z" fill="#1f212b" fill-opacity="1" stroke="none"/>
 <path id="path-6" d="M54.5 12.25 C54.394 12.25 54.287 12.216 54.196 12.147 53.874 11.9 53.546 11.661 53.213 11.427 52.987 11.268 52.932 10.957 53.091 10.731 53.249 10.503 53.561 10.451 53.787 10.608 54.132 10.849 54.47 11.098 54.804 11.353 55.024 11.52 55.065 11.834 54.898 12.054 54.799 12.182 54.65 12.25 54.5 12.25 Z" fill="#1f212b" fill-opacity="1" stroke="none"/>
 <path id="path-7" d="M36 67 C18.906 67 5 53.093 5 36 5 18.907 18.906 5 36 5 39.668 5 43.259 5.635 46.672 6.886 46.932 6.981 47.065 7.268 46.97 7.528 46.875 7.788 46.587 7.921 46.328 7.825 43.025 6.614 39.551 6 36 6 19.458 6 6 19.458 6 36 6 52.542 19.458 66 36 66 52.542 66 66 52.542 66 36 66 27.561 62.415 19.465 56.164 13.787 55.959 13.601 55.944 13.285 56.13 13.08 56.317 12.876 56.633 12.861 56.836 13.046 63.296 18.914 67 27.28 67 36 67 53.093 53.094 67 36 67 Z" fill="#1f212b" fill-opacity="1" stroke="none"/>
 <path id="path-8" d="M43.726 54 C42.67 54 42.1 53.497 42.038 53.439 L29.595 42.909 23.569 39.818 15.761 37.699 C15.679 37.675 14 37.162 14 35.627 14 34.294 15.711 33.725 15.783 33.701 L48.612 20.408 C48.637 20.397 49.549 20 50.375 20 51.316 20 52 20.631 52 21.5 52 21.643 51.985 21.798 51.966 21.942 51.928 22.218 46.731 49.132 46.134 52.219 46.022 52.837 45.378 54 43.726 54 Z M50.375 21 C49.762 21 49.008 21.326 49.001 21.33 L16.125 34.641 C15.81 34.746 15 35.126 15 35.627 15 36.412 16.025 36.734 16.035 36.737 L23.881 38.866 C23.915 38.875 23.947 38.887 23.979 38.904 L30.103 42.045 C30.136 42.062 30.168 42.084 30.198 42.108 L42.703 52.692 C42.728 52.714 43.064 53 43.726 53 44.966 53 45.144 52.08 45.151 52.04 45.151 52.038 45.152 52.035 45.152 52.033 47.137 41.754 50.91 22.206 50.977 21.799 50.989 21.707 51 21.6 51 21.5 51 21.024 50.479 21 50.375 21 Z" fill="#1f212b" fill-opacity="1" stroke="none"/>
 <path id="path-9" d="M28.655 52 C28.496 52 28.327 51.962 28.169 51.887 27.967 51.791 27.854 51.574 27.89 51.353 L29.373 42.407 C29.402 42.23 29.524 42.082 29.693 42.02 29.863 41.957 30.051 41.991 30.188 42.107 L34.858 46.053 C34.968 46.145 35.033 46.281 35.036 46.424 35.039 46.568 34.98 46.705 34.875 46.802 L29.597 51.678 C29.506 51.752 29.184 51.985 28.731 51.997 28.706 52 28.681 52 28.655 52 Z M30.216 43.439 L28.98 50.891 33.782 46.452 30.216 43.439 Z" fill="#1f212b" fill-opacity="1" stroke="none"/>
 <path id="path-10" d="M28.383 51.936 C28.367 51.936 28.351 51.935 28.334 51.934 27.956 51.897 27.602 51.478 27.279 50.689 27.2 50.495 23.933 41.356 23.279 39.525 23.2 39.303 23.286 39.055 23.487 38.931 L43.997 26.237 C44.184 26.09 44.435 25.994 44.738 26 45.134 26.001 45.499 26.188 45.74 26.509 45.908 26.731 46 27.007 46 27.286 46 27.691 45.818 28.063 45.502 28.307 L30.332 42.737 28.876 51.518 C28.836 51.761 28.625 51.936 28.383 51.936 Z M24.356 39.569 C25.582 42.997 27.628 48.72 28.107 50.042 L29.373 42.407 C29.391 42.3 29.443 42.201 29.521 42.127 L44.851 27.548 C44.96 27.462 45 27.378 45 27.286 45 27.242 44.99 27.175 44.941 27.111 44.941 27.11 44.94 27.109 44.939 27.109 44.887 27.039 44.824 27.026 44.731 27 44.671 27 44.614 27.021 44.564 27.059 L24.356 39.569 Z" fill="#1f212b" fill-opacity="1" stroke="none"/>
</svg>
