<?xml version="1.0" encoding="UTF-8"?>
<svg width="66px" height="66px" viewBox="0 0 66 66" xmlns="http://www.w3.org/2000/svg" xmlns:xlink="http://www.w3.org/1999/xlink" version="1.1">
 <!-- Generated by Pixelmator Pro 1.3.4 -->
 <path id="path" d="M52 65 L14 65 C6.82 65 1 59.18 1 52 L1 14 C1 6.82 6.82 1 14 1 L52 1 C59.18 1 65 6.82 65 14 L65 52 C65 59.18 59.18 65 52 65 Z" fill="#78a2d2" fill-opacity="1" stroke="none"/>
 <path id="path-1" d="M49.5 61 L16.5 61 C10.159 61 5 55.841 5 49.5 L5 16.5 C5 10.159 10.159 5 16.5 5 L49.5 5 C49.853 5 50.199 5.022 50.544 5.053 50.819 5.077 51.023 5.321 50.998 5.595 50.973 5.871 50.714 6.061 50.456 6.049 50.141 6.021 49.823 6 49.5 6 L16.5 6 C10.71 6 6 10.71 6 16.5 L6 49.5 C6 55.29 10.71 60 16.5 60 L49.5 60 C55.29 60 60 55.29 60 49.5 L60 32.5 C60 32.224 60.224 32 60.5 32 60.776 32 61 32.224 61 32.5 L61 49.5 C61 55.841 55.841 61 49.5 61 Z" fill="#1f212b" fill-opacity="1" stroke="none"/>
 <path id="path-2" d="M60.5 23 C60.224 23 60 22.776 60 22.5 L60 20.5 C60 20.224 60.224 20 60.5 20 60.776 20 61 20.224 61 20.5 L61 22.5 C61 22.776 60.776 23 60.5 23 Z" fill="#1f212b" fill-opacity="1" stroke="none"/>
 <path id="path-3" d="M60.5 30 C60.224 30 60 29.776 60 29.5 L60 25.5 C60 25.224 60.224 25 60.5 25 60.776 25 61 25.224 61 25.5 L61 29.5 C61 29.776 60.776 30 60.5 30 Z" fill="#1f212b" fill-opacity="1" stroke="none"/>
 <path id="path-4" d="M52 66 L14 66 C6.28 66 0 59.72 0 52 L0 14 C0 6.28 6.28 0 14 0 L52 0 C59.72 0 66 6.28 66 14 L66 52 C66 59.72 59.72 66 52 66 Z M14 2 C7.383 2 2 7.383 2 14 L2 52 C2 58.617 7.383 64 14 64 L52 64 C58.617 64 64 58.617 64 52 L64 14 C64 7.383 58.617 2 52 2 L14 2 Z" fill="#1f212b" fill-opacity="1" stroke="none"/>
 <path id="path-5" d="M51.403 24.093 C51.475 23.865 51.505 23.65 51.499 23.458 51.475 22.901 51.089 22.5 50.186 22.5 L46.151 22.5 C45.133 22.5 44.664 23.111 44.387 23.728 44.387 23.728 42.156 28.6 39.455 32 39.308 32.185 38.25 33.5 36.5 33.5 36.25 33.5 35.5 33.375 35.5 32.25 L35.5 24.057 C35.5 22.991 35.235 22.5 34.374 22.5 L27.5 22.5 C26.874 22.5 26.5 23.009 26.5 23.5 26.5 24.524 28.5 24.5 28.497 27.348 L28.497 32.906 C28.497 34.254 28.262 34.499 27.75 34.499 26.383 34.499 23.557 30.166 21.751 24.134 21.36 22.948 20.968 22.499 19.944 22.499 L15.873 22.499 C14.699 22.499 14.5 23.074 14.5 23.685 14.5 24.793 15.427 30.771 20.474 37.641 24.135 42.624 28.959 45.499 33.229 45.499 34.501 45.499 35.501 44.874 35.501 43.499 L35.501 38.931 C35.5 38 36.175 37.5 37 37.5 38 37.5 38.973 38.217 41.286 40.9 43.954 43.997 44.436 45.5 45.965 45.5 L50 45.5 C50.939 45.5 51.475 45.111 51.499 44.35 51.505 44.158 51.475 43.943 51.415 43.697 51.114 42.817 49.908 40.66 48.198 38.6 47.253 37.462 46.313 36.33 45.886 35.719 45.597 35.318 45.489 35.036 45.501 34.767 45.513 34.485 45.664 34.216 45.886 33.839 45.843 33.838 50.891 26.549 51.403 24.093 Z" fill="#ffffff" fill-opacity="1" stroke="none"/>
 <path id="path-6" d="M51.403 24.093 C51.475 23.865 51.505 23.65 51.499 23.458 51.475 22.901 51.089 22.5 50.186 22.5 L46.151 22.5 C45.133 22.5 44.664 23.111 44.387 23.728 44.387 23.728 42.156 28.6 39.455 32 39.308 32.185 38.25 33.5 36.5 33.5 36.25 33.5 35.5 33.375 35.5 32.25 L35.5 24.057 C35.5 22.991 35.235 22.5 34.374 22.5 L27.5 22.5 C26.874 22.5 26.5 23.009 26.5 23.5 26.5 24.524 28.5 24.5 28.497 27.348 L28.497 32.906 C28.497 34.254 28.262 34.499 27.75 34.499 26.383 34.499 23.557 30.166 21.751 24.134 21.36 22.948 20.968 22.499 19.944 22.499 L15.873 22.499 C14.699 22.499 14.5 23.074 14.5 23.685 14.5 24.793 15.427 30.771 20.474 37.641 24.135 42.624 28.959 45.499 33.229 45.499 34.501 45.499 35.501 44.874 35.501 43.499 L35.501 38.931 C35.5 38 36.175 37.5 37 37.5 38 37.5 38.973 38.217 41.286 40.9 43.954 43.997 44.436 45.5 45.965 45.5 L50 45.5 C50.939 45.5 51.475 45.111 51.499 44.35 51.505 44.158 51.475 43.943 51.415 43.697 51.114 42.817 49.908 40.66 48.198 38.6 47.253 37.462 46.313 36.33 45.886 35.719 45.597 35.318 45.489 35.036 45.501 34.767 45.513 34.485 45.664 34.216 45.886 33.839 45.843 33.838 50.891 26.549 51.403 24.093 Z" fill="none" stroke="#1f212b" stroke-width="1" stroke-opacity="1" stroke-linejoin="round"/>
</svg>
