<?xml version="1.0" encoding="UTF-8"?>
<svg width="70px" height="70px" viewBox="0 0 70 70" xmlns="http://www.w3.org/2000/svg" xmlns:xlink="http://www.w3.org/1999/xlink" version="1.1">
 <!-- Generated by Pixelmator Pro 1.3.4 -->
 <path id="path" d="M35 1 C16.222 1 1 16.222 1 35 1 41.112 2.621 46.843 5.444 51.799 L1.037 67.732 C0.83 68.481 1.518 69.17 2.267 68.962 L18.2 64.555 C23.157 67.379 28.888 69 35 69 53.778 69 69 53.778 69 35 69 16.222 53.778 1 35 1 Z" fill="#ffffff" fill-opacity="1" stroke="none"/>
 <path id="path-1" d="M35 7 C19.536 7 7 19.536 7 35 7 41.122 8.97 46.78 12.303 51.388 L9.89 60.11 18.613 57.697 C23.221 61.03 28.879 63 35 63 50.464 63 63 50.464 63 35 63 19.536 50.464 7 35 7 Z" fill="#60be92" fill-opacity="1" stroke="none"/>
 <path id="path-2" d="M26.896 20.949 C26.288 19.574 25.646 19.547 25.064 19.527 24.589 19.507 24.048 19.507 23.506 19.507 22.971 19.507 22.089 19.71 21.347 20.536 20.598 21.355 18.499 23.346 18.499 27.396 18.499 31.439 21.414 35.353 21.815 35.901 22.223 36.443 27.437 45.016 35.686 48.314 42.545 51.05 43.942 50.508 45.426 50.373 46.917 50.231 50.233 48.382 50.908 46.459 51.583 44.543 51.583 42.897 51.383 42.552 51.182 42.207 50.641 42.003 49.825 41.59 49.016 41.177 45.025 39.193 44.276 38.915 43.534 38.644 42.992 38.509 42.451 39.328 41.91 40.147 40.352 42.003 39.877 42.551 39.402 43.1 38.934 43.167 38.119 42.761 37.31 42.348 34.696 41.481 31.594 38.678 29.181 36.498 27.55 33.809 27.075 32.983 26.6 32.164 27.022 31.717 27.429 31.304 27.797 30.938 28.245 30.342 28.652 29.862 29.053 29.381 29.187 29.043 29.461 28.494 29.728 27.945 29.595 27.465 29.394 27.052 29.196 26.637 27.618 22.574 26.896 20.949 Z" fill="#ffffff" fill-opacity="1" stroke="none"/>
 <path id="path-3" d="M1.991 70.001 C1.47 70.001 0.97 69.797 0.587 69.413 0.07 68.897 -0.121 68.169 0.073 67.466 L4.371 51.93 C1.51 46.764 0 40.919 0 35 0 15.701 15.701 0 35 0 54.299 0 70 15.701 70 35 70 54.299 54.299 70 35 70 29.081 70 23.236 68.49 18.07 65.629 L2.534 69.927 C2.354 69.977 2.171 70.001 1.991 70.001 Z M18.201 63.556 C18.373 63.556 18.544 63.6 18.696 63.687 23.649 66.509 29.287 68 35 68 53.196 68 68 53.196 68 35 68 16.804 53.196 2 35 2 16.804 2 2 16.804 2 35 2 40.713 3.491 46.351 6.313 51.304 6.445 51.535 6.479 51.809 6.408 52.066 L2.001 68 17.935 63.593 C18.022 63.567 18.112 63.556 18.201 63.556 Z" fill="#1f212b" fill-opacity="1" stroke="none"/>
 <path id="path-4" d="M43.768 51.008 C42.356 51.008 40.158 50.635 35.502 48.779 30.514 46.785 25.572 42.408 21.589 36.456 21.503 36.329 21.446 36.242 21.416 36.202 20.371 34.774 18 31.133 18 27.396 18 23.394 19.984 21.266 20.832 20.357 L20.978 20.199 C21.944 19.123 23.068 19.007 23.506 19.007 24.056 19.007 24.604 19.007 25.085 19.028 25.857 19.055 26.672 19.211 27.353 20.748 27.781 21.711 28.493 23.489 29.065 24.917 29.428 25.823 29.771 26.679 29.846 26.834 30.056 27.268 30.291 27.935 29.912 28.713 L29.789 28.964 C29.579 29.394 29.413 29.734 29.037 30.183 28.902 30.342 28.766 30.511 28.628 30.68 28.343 31.032 28.048 31.396 27.782 31.659 27.382 32.065 27.229 32.251 27.509 32.733 28.077 33.722 29.643 36.242 31.93 38.307 34.458 40.592 36.617 41.544 37.777 42.055 38.015 42.159 38.207 42.245 38.347 42.317 39.028 42.657 39.22 42.548 39.5 42.225 39.996 41.651 41.52 39.832 42.034 39.053 42.826 37.853 43.802 38.211 44.447 38.446 45.265 38.749 49.417 40.821 50.052 41.145 L50.494 41.364 C51.122 41.671 51.576 41.892 51.814 42.301 52.14 42.864 52.043 44.737 51.378 46.626 50.605 48.826 47.035 50.723 45.472 50.872 45.331 50.885 45.194 50.9 45.052 50.918 44.676 50.96 44.271 51.008 43.768 51.008 Z M23.536 20.006 C23.285 20.006 22.469 20.035 21.72 20.869 L21.564 21.038 C20.731 21.931 19 23.788 19 27.396 19 30.838 21.236 34.263 22.197 35.577 22.25 35.647 22.319 35.749 22.42 35.899 26.292 41.686 31.07 45.93 35.873 47.85 41.951 50.274 43.607 50.079 44.937 49.923 45.087 49.904 45.234 49.888 45.381 49.874 46.673 49.751 49.831 48.015 50.437 46.292 51.061 44.52 51.052 43.048 50.944 42.788 50.866 42.656 50.492 42.473 50.057 42.262 L49.6 42.035 C48.656 41.553 44.796 39.639 44.103 39.383 43.382 39.121 43.195 39.111 42.869 39.603 42.285 40.488 40.635 42.442 40.257 42.878 39.449 43.811 38.57 43.545 37.898 43.208 37.765 43.141 37.59 43.064 37.375 42.969 36.25 42.473 33.909 41.442 31.262 39.048 28.868 36.886 27.236 34.26 26.645 33.232 25.973 32.072 26.691 31.343 27.076 30.953 27.315 30.715 27.585 30.381 27.854 30.049 27.996 29.874 28.137 29.699 28.274 29.538 28.57 29.184 28.699 28.921 28.893 28.523 L29.018 28.269 C29.165 27.967 29.145 27.675 28.948 27.268 28.862 27.09 28.598 26.434 28.139 25.288 27.57 23.867 26.861 22.099 26.441 21.152 L26.441 21.15 C25.957 20.057 25.556 20.044 25.048 20.026 24.583 20.006 24.061 20.006 23.536 20.006 Z" fill="#1f212b" fill-opacity="1" stroke="none"/>
 <path id="path-5" d="M35 63 C29.303 63 23.825 61.296 19.142 58.069 L10.024 60.591 C9.848 60.641 9.664 60.59 9.537 60.463 9.41 60.336 9.36 60.15 9.409 59.976 L11.93 50.859 C8.704 46.176 7 40.698 7 35 7 19.561 19.561 7 35 7 37.574 7 40.144 7.357 42.636 8.063 42.902 8.138 43.057 8.415 42.982 8.68 42.907 8.945 42.627 9.1 42.365 9.026 39.96 8.345 37.482 8 35 8 20.112 8 8 20.112 8 35 8 40.57 9.688 45.923 12.884 50.479 12.97 50.601 12.996 50.755 12.956 50.9 L10.606 59.393 19.1 57.043 C19.243 57.001 19.398 57.03 19.521 57.115 24.078 60.312 29.431 62 35 62 49.888 62 62 49.888 62 35 62 27.819 59.211 21.059 54.146 15.964 53.952 15.768 53.952 15.451 54.148 15.257 54.344 15.063 54.661 15.063 54.855 15.259 60.107 20.543 63 27.554 63 35 63 50.439 50.439 63 35 63 Z" fill="#1f212b" fill-opacity="1" stroke="none"/>
 <path id="path-6" d="M48.5 11.545 C48.416 11.545 48.332 11.524 48.254 11.481 47.291 10.936 46.3 10.453 45.309 10.043 45.054 9.938 44.933 9.646 45.038 9.39 45.142 9.136 45.436 9.012 45.691 9.119 46.719 9.545 47.748 10.047 48.746 10.61 48.986 10.746 49.071 11.051 48.935 11.292 48.844 11.453 48.674 11.545 48.5 11.545 Z M52.5 14.286 C52.388 14.286 52.275 14.249 52.182 14.172 51.563 13.66 50.902 13.165 50.218 12.698 49.99 12.542 49.932 12.231 50.087 12.003 50.243 11.775 50.555 11.719 50.782 11.872 51.49 12.355 52.176 12.87 52.818 13.4 53.031 13.576 53.061 13.891 52.885 14.104 52.787 14.225 52.644 14.286 52.5 14.286 Z" fill="#1f212b" fill-opacity="1" stroke="none"/>
</svg>
